<svg xmlns="http://www.w3.org/2000/svg" xmlns:xlink="http://www.w3.org/1999/xlink" aria-hidden="true" role="img" class="iconify iconify--logos" width="31.88" height="32" preserveAspectRatio="xMidYMid meet" viewBox="0 0 256 257"><defs><linearGradient id="IconifyId1813088fe1fbc01fb466" x1="-.828%" x2="57.636%" y1="7.652%" y2="78.411%"><stop offset="0%" stop-color="#41D1FF"></stop><stop offset="100%" stop-color="#BD34FE"></stop></linearGradient><linearGradient id="IconifyId1813088fe1fbc01fb467" x1="43.376%" x2="50.316%" y1="2.242%" y2="89.57%"><stop offset="0%" stop-color="#FFEA83"></stop><stop offset="8.333%" stop-color="#FFDD35"></stop><stop offset="100%" stop-color="#FF8002"></stop></linearGradient></defs><path fill="url(#IconifyId1813088fe1fbc01fb466)" d="M255.153 37.938L134.897 252.976c-2.483 4.44-8.862 4.44-11.382 0L29.74 37.938c-2.746-4.814 1.372-10.646 6.827-9.67l120.385 21.517a6.537 6.537 0 0 0 2.322 0l120.402-21.517c5.456-.976 9.573 4.856 6.827 9.67Z"></path><path fill="url(#IconifyId1813088fe1fbc01fb467)" d="M185.432 0a25.867 25.867 0 0 0-17.442 6.266L65.006 96.12c-3.239 2.931-3.239 7.877 0 10.808l96.066 84.992c3.232 2.913 8.549 2.915 11.789 0l102.984-93.296c3.241-2.943 3.241-7.886 0-10.831L185.432 0Z"></path></svg>